<svg xmlns="http://www.w3.org/2000/svg" xmlns:xlink="http://www.w3.org/1999/xlink" viewBox="0 0 1080 1080" width="1080" height="1080" preserveAspectRatio="xMidYMid meet" style="width: 100%; height: 100%; transform: translate3d(0px, 0px, 0px); content-visibility: visible;"><defs><clipPath id="__lottie_element_969"><rect width="1080" height="1080" x="0" y="0"></rect></clipPath></defs><g clip-path="url(#__lottie_element_969)"><g transform="matrix(1,0,0,1,0,0)" opacity="1" style="display: block;"><g opacity="1" transform="matrix(1,0,0,1,540,154.97738647460938)"><g opacity="1" transform="matrix(1,0,0,1,0,0)"><path fill="rgb(255,0,93)" fill-opacity="1" d=" M0,-35 C19.316499710083008,-35 35,-19.316499710083008 35,0 C35,19.316499710083008 19.316499710083008,35 0,35 C-19.316499710083008,35 -35,19.316499710083008 -35,0 C-35,-19.316499710083008 -19.316499710083008,-35 0,-35z"></path></g></g><g opacity="1" transform="matrix(-0.3420201539993286,0.9396926164627075,-0.9396926164627075,-0.3420201539993286,901.9825439453125,670.66650390625)"><g opacity="1" transform="matrix(0.7771459817886353,0.6293203830718994,-0.6293203830718994,0.7771459817886353,0,0)"><path stroke-linecap="butt" stroke-linejoin="miter" fill-opacity="0" stroke-miterlimit="10" stroke="rgb(255,75,61)" stroke-opacity="1" stroke-width="15" d=" M27.957000732421875,-13.979000091552734 C27.957000732421875,1.4609999656677246 15.4399995803833,13.979000091552734 0,13.979000091552734 C-15.4399995803833,13.979000091552734 -27.957000732421875,1.4609999656677246 -27.957000732421875,-13.979000091552734"></path></g></g><g opacity="1" transform="matrix(0.6427876353263855,0.7660444378852844,-0.7660444378852844,0.6427876353263855,834.9446411132812,292.512451171875)"><g opacity="1" transform="matrix(0.8290375471115112,0.5591928958892822,-0.5591928958892822,0.8290375471115112,0,0)"><path stroke-linecap="butt" stroke-linejoin="miter" fill-opacity="0" stroke-miterlimit="10" stroke="rgb(6,188,92)" stroke-opacity="1" stroke-width="15" d=" M27.957000732421875,-13.979000091552734 C27.957000732421875,1.4609999656677246 15.4399995803833,13.979000091552734 0,13.979000091552734 C-15.4399995803833,13.979000091552734 -27.957000732421875,1.4609999656677246 -27.957000732421875,-13.979000091552734"></path></g></g><g opacity="1" transform="matrix(0,1,-1,0,925.0225830078125,540)"><g opacity="1" transform="matrix(1,0,0,1,0,0)"><path fill="rgb(245,180,1)" fill-opacity="1" d=" M31.51799964904785,2.561000108718872 C31.51799964904785,2.561000108718872 13.717000007629395,12.392000198364258 13.717000007629395,12.392000198364258 C13.204000473022461,12.675000190734863 12.781999588012695,13.098999977111816 12.503000259399414,13.614999771118164 C12.503000259399414,13.614999771118164 2.819000005722046,31.496000289916992 2.819000005722046,31.496000289916992 C1.6649999618530273,33.62699890136719 -1.3890000581741333,33.63999938964844 -2.561000108718872,31.51799964904785 C-2.561000108718872,31.51799964904785 -12.392000198364258,13.717000007629395 -12.392000198364258,13.717000007629395 C-12.675000190734863,13.204000473022461 -13.098999977111816,12.781999588012695 -13.614999771118164,12.503000259399414 C-13.614999771118164,12.503000259399414 -31.496000289916992,2.819000005722046 -31.496000289916992,2.819000005722046 C-33.62699890136719,1.6649999618530273 -33.63999938964844,-1.3890000581741333 -31.51799964904785,-2.561000108718872 C-31.51799964904785,-2.561000108718872 -13.717000007629395,-12.392000198364258 -13.717000007629395,-12.392000198364258 C-13.204000473022461,-12.675000190734863 -12.781999588012695,-13.098999977111816 -12.503000259399414,-13.614999771118164 C-12.503000259399414,-13.614999771118164 -2.819000005722046,-31.496000289916992 -2.819000005722046,-31.496000289916992 C-1.6649999618530273,-33.62699890136719 1.3890000581741333,-33.63999938964844 2.561000108718872,-31.51799964904785 C2.561000108718872,-31.51799964904785 12.392000198364258,-13.717000007629395 12.392000198364258,-13.717000007629395 C12.675000190734863,-13.204000473022461 13.098999977111816,-12.781999588012695 13.614999771118164,-12.503000259399414 C13.614999771118164,-12.503000259399414 31.496000289916992,-2.819000005722046 31.496000289916992,-2.819000005722046 C33.62699890136719,-1.6649999618530273 33.63999938964844,1.3890000581741333 31.51799964904785,2.561000108718872z"></path></g></g><g opacity="1" transform="matrix(0,-1,1,0,155.34939575195312,539.8460083007812)"><g opacity="1" transform="matrix(1,0,0,1,0,0)"><path fill="rgb(245,180,1)" fill-opacity="1" d=" M31.51799964904785,2.561000108718872 C31.51799964904785,2.561000108718872 13.717000007629395,12.392000198364258 13.717000007629395,12.392000198364258 C13.204000473022461,12.675000190734863 12.781999588012695,13.098999977111816 12.503000259399414,13.614999771118164 C12.503000259399414,13.614999771118164 2.819000005722046,31.496000289916992 2.819000005722046,31.496000289916992 C1.6649999618530273,33.62699890136719 -1.3890000581741333,33.63999938964844 -2.561000108718872,31.51799964904785 C-2.561000108718872,31.51799964904785 -12.392000198364258,13.717000007629395 -12.392000198364258,13.717000007629395 C-12.675000190734863,13.204000473022461 -13.098999977111816,12.781999588012695 -13.614999771118164,12.503000259399414 C-13.614999771118164,12.503000259399414 -31.496000289916992,2.819000005722046 -31.496000289916992,2.819000005722046 C-33.62699890136719,1.6649999618530273 -33.63999938964844,-1.3890000581741333 -31.51799964904785,-2.561000108718872 C-31.51799964904785,-2.561000108718872 -13.717000007629395,-12.392000198364258 -13.717000007629395,-12.392000198364258 C-13.204000473022461,-12.675000190734863 -12.781999588012695,-13.098999977111816 -12.503000259399414,-13.614999771118164 C-12.503000259399414,-13.614999771118164 -2.819000005722046,-31.496000289916992 -2.819000005722046,-31.496000289916992 C-1.6649999618530273,-33.62699890136719 1.3890000581741333,-33.63999938964844 2.561000108718872,-31.51799964904785 C2.561000108718872,-31.51799964904785 12.392000198364258,-13.717000007629395 12.392000198364258,-13.717000007629395 C12.675000190734863,-13.204000473022461 13.098999977111816,-12.781999588012695 13.614999771118164,-12.503000259399414 C13.614999771118164,-12.503000259399414 31.496000289916992,-2.819000005722046 31.496000289916992,-2.819000005722046 C33.62699890136719,-1.6649999618530273 33.63999938964844,1.3890000581741333 31.51799964904785,2.561000108718872z"></path></g></g><g opacity="1" transform="matrix(0.6691306233406067,0.7431448101997375,-0.7431448101997375,0.6691306233406067,832.94384765625,785.8086547851562)"><g opacity="1" transform="matrix(0.800000011920929,0,0,0.800000011920929,0,0)"><path fill="rgb(0,255,200)" fill-opacity="1" d=" M35,-35 C35,-35 35,35 35,35 C35,35 -35,35 -35,35 C-35,35 -35,-35 -35,-35 C-35,-35 35,-35 35,-35z"></path></g></g><g opacity="1" transform="matrix(-0.7986354827880859,0.6018150448799133,-0.6018150448799133,-0.7986354827880859,269.59442138671875,810.4055786132812)"><g opacity="1" transform="matrix(0.800000011920929,0,0,0.800000011920929,0,0)"><path fill="rgb(0,255,200)" fill-opacity="1" d=" M35,-35 C35,-35 35,35 35,35 C35,35 -35,35 -35,35 C-35,35 -35,-35 -35,-35 C-35,-35 35,-35 35,-35z"></path></g></g><g opacity="1" transform="matrix(0,1,-1,0,540,922.4107055664062)"><g opacity="1" transform="matrix(0.80901700258255,0.5877852439880371,-0.5877852439880371,0.80901700258255,0,0)"><path stroke-linecap="butt" stroke-linejoin="miter" fill-opacity="0" stroke-miterlimit="10" stroke="rgb(0,161,255)" stroke-opacity="1" stroke-width="15" d=" M0,-35 C0,-35 0,35 0,35"></path></g></g><g opacity="1" transform="matrix(-0.4226182699203491,-0.9063078165054321,0.9063078165054321,-0.4226182699203491,191.5277862548828,701.9699096679688)"><g opacity="1" transform="matrix(1,0,0,1,0,0)"><path fill="rgb(255,0,93)" fill-opacity="1" d=" M0,-35 C19.316499710083008,-35 35,-19.316499710083008 35,0 C35,19.316499710083008 19.316499710083008,35 0,35 C-19.316499710083008,35 -35,19.316499710083008 -35,0 C-35,-19.316499710083008 -19.316499710083008,-35 0,-35z"></path></g></g><g opacity="1" transform="matrix(-0.9063078165054321,0.4226182699203491,-0.4226182699203491,-0.9063078165054321,703.1939086914062,888.201171875)"><g opacity="1" transform="matrix(0.7771459817886353,0.6293203830718994,-0.6293203830718994,0.7771459817886353,0,0)"><path stroke-linecap="butt" stroke-linejoin="miter" fill-opacity="0" stroke-miterlimit="10" stroke="rgb(255,75,61)" stroke-opacity="1" stroke-width="15" d=" M27.957000732421875,-13.979000091552734 C27.957000732421875,1.4609999656677246 15.4399995803833,13.979000091552734 0,13.979000091552734 C-15.4399995803833,13.979000091552734 -27.957000732421875,1.4609999656677246 -27.957000732421875,-13.979000091552734"></path></g></g><g opacity="1" transform="matrix(0.4226182699203491,-0.9063078165054321,0.9063078165054321,0.4226182699203491,191.5277862548828,376.53509521484375)"><g opacity="1" transform="matrix(0.8290375471115112,0.5591928958892822,-0.5591928958892822,0.8290375471115112,0,0)"><path stroke-linecap="butt" stroke-linejoin="miter" fill-opacity="0" stroke-miterlimit="10" stroke="rgb(6,188,92)" stroke-opacity="1" stroke-width="15" d=" M27.957000732421875,-13.979000091552734 C27.957000732421875,1.4609999656677246 15.4399995803833,13.979000091552734 0,13.979000091552734 C-15.4399995803833,13.979000091552734 -27.957000732421875,1.4609999656677246 -27.957000732421875,-13.979000091552734"></path></g></g><g opacity="1" transform="matrix(0.9063078165054321,-0.4226182699203491,0.4226182699203491,0.9063078165054321,377.75909423828125,190.3028106689453)"><g opacity="1" transform="matrix(1,0,0,1,0,0)"><path fill="rgb(245,180,1)" fill-opacity="1" d=" M31.51799964904785,2.561000108718872 C31.51799964904785,2.561000108718872 13.717000007629395,12.392000198364258 13.717000007629395,12.392000198364258 C13.204000473022461,12.675000190734863 12.781999588012695,13.098999977111816 12.503000259399414,13.614999771118164 C12.503000259399414,13.614999771118164 2.819000005722046,31.496000289916992 2.819000005722046,31.496000289916992 C1.6649999618530273,33.62699890136719 -1.3890000581741333,33.63999938964844 -2.561000108718872,31.51799964904785 C-2.561000108718872,31.51799964904785 -12.392000198364258,13.717000007629395 -12.392000198364258,13.717000007629395 C-12.675000190734863,13.204000473022461 -13.098999977111816,12.781999588012695 -13.614999771118164,12.503000259399414 C-13.614999771118164,12.503000259399414 -31.496000289916992,2.819000005722046 -31.496000289916992,2.819000005722046 C-33.62699890136719,1.6649999618530273 -33.63999938964844,-1.3890000581741333 -31.51799964904785,-2.561000108718872 C-31.51799964904785,-2.561000108718872 -13.717000007629395,-12.392000198364258 -13.717000007629395,-12.392000198364258 C-13.204000473022461,-12.675000190734863 -12.781999588012695,-13.098999977111816 -12.503000259399414,-13.614999771118164 C-12.503000259399414,-13.614999771118164 -2.819000005722046,-31.496000289916992 -2.819000005722046,-31.496000289916992 C-1.6649999618530273,-33.62699890136719 1.3890000581741333,-33.63999938964844 2.561000108718872,-31.51799964904785 C2.561000108718872,-31.51799964904785 12.392000198364258,-13.717000007629395 12.392000198364258,-13.717000007629395 C12.675000190734863,-13.204000473022461 13.098999977111816,-12.781999588012695 13.614999771118164,-12.503000259399414 C13.614999771118164,-12.503000259399414 31.496000289916992,-2.819000005722046 31.496000289916992,-2.819000005722046 C33.62699890136719,-1.6649999618530273 33.63999938964844,1.3890000581741333 31.51799964904785,2.561000108718872z"></path></g></g><g opacity="1" transform="matrix(-0.9396926164627075,-0.3420201539993286,0.3420201539993286,-0.9396926164627075,408.7904968261719,901.0554809570312)"><g opacity="1" transform="matrix(1,0,0,1,0,0)"><path fill="rgb(245,180,1)" fill-opacity="1" d=" M31.51799964904785,2.561000108718872 C31.51799964904785,2.561000108718872 13.717000007629395,12.392000198364258 13.717000007629395,12.392000198364258 C13.204000473022461,12.675000190734863 12.781999588012695,13.098999977111816 12.503000259399414,13.614999771118164 C12.503000259399414,13.614999771118164 2.819000005722046,31.496000289916992 2.819000005722046,31.496000289916992 C1.6649999618530273,33.62699890136719 -1.3890000581741333,33.63999938964844 -2.561000108718872,31.51799964904785 C-2.561000108718872,31.51799964904785 -12.392000198364258,13.717000007629395 -12.392000198364258,13.717000007629395 C-12.675000190734863,13.204000473022461 -13.098999977111816,12.781999588012695 -13.614999771118164,12.503000259399414 C-13.614999771118164,12.503000259399414 -31.496000289916992,2.819000005722046 -31.496000289916992,2.819000005722046 C-33.62699890136719,1.6649999618530273 -33.63999938964844,-1.3890000581741333 -31.51799964904785,-2.561000108718872 C-31.51799964904785,-2.561000108718872 -13.717000007629395,-12.392000198364258 -13.717000007629395,-12.392000198364258 C-13.204000473022461,-12.675000190734863 -12.781999588012695,-13.098999977111816 -12.503000259399414,-13.614999771118164 C-12.503000259399414,-13.614999771118164 -2.819000005722046,-31.496000289916992 -2.819000005722046,-31.496000289916992 C-1.6649999618530273,-33.62699890136719 1.3890000581741333,-33.63999938964844 2.561000108718872,-31.51799964904785 C2.561000108718872,-31.51799964904785 12.392000198364258,-13.717000007629395 12.392000198364258,-13.717000007629395 C12.675000190734863,-13.204000473022461 13.098999977111816,-12.781999588012695 13.614999771118164,-12.503000259399414 C13.614999771118164,-12.503000259399414 31.496000289916992,-2.819000005722046 31.496000289916992,-2.819000005722046 C33.62699890136719,-1.6649999618530273 33.63999938964844,1.3890000581741333 31.51799964904785,2.561000108718872z"></path></g></g><g opacity="1" transform="matrix(0.5446390509605408,-0.838670551776886,0.838670551776886,0.5446390509605408,702.12109375,192.75697326660156)"><g opacity="1" transform="matrix(0.800000011920929,0,0,0.800000011920929,0,0)"><path fill="rgb(0,255,200)" fill-opacity="1" d=" M35,-35 C35,-35 35,35 35,35 C35,35 -35,35 -35,35 C-35,35 -35,-35 -35,-35 C-35,-35 35,-35 35,-35z"></path></g></g><g opacity="1" transform="matrix(-0.6018150448799133,-0.7986354827880859,0.7986354827880859,-0.6018150448799133,269.06939697265625,269.06939697265625)"><g opacity="1" transform="matrix(0.800000011920929,0,0,0.800000011920929,0,0)"><path fill="rgb(0,255,200)" fill-opacity="1" d=" M35,-35 C35,-35 35,35 35,35 C35,35 -35,35 -35,35 C-35,35 -35,-35 -35,-35 C-35,-35 35,-35 35,-35z"></path></g></g><g opacity="1" transform="matrix(0.9335803985595703,-0.3583679497241974,0.3583679497241974,0.9335803985595703,897.5015258789062,402.24200439453125)"><g opacity="1" transform="matrix(0.80901700258255,0.5877852439880371,-0.5877852439880371,0.80901700258255,0,0)"><path stroke-linecap="butt" stroke-linejoin="miter" fill-opacity="0" stroke-miterlimit="10" stroke="rgb(0,161,255)" stroke-opacity="1" stroke-width="15" d=" M0,-35 C0,-35 0,35 0,35"></path></g></g></g><g transform="matrix(-0.6535062789916992,0.25085756182670593,-0.25085756182670593,-0.6535062789916992,1026.552734375,743.4677124023438)" opacity="1" style="display: block;"><g opacity="1" transform="matrix(1,0,0,1,540,180.2998046875)"><g opacity="1" transform="matrix(1,0,0,1,0,0)"><path fill="rgb(255,0,93)" fill-opacity="1" d=" M0,-35 C19.316499710083008,-35 35,-19.316499710083008 35,0 C35,19.316499710083008 19.316499710083008,35 0,35 C-19.316499710083008,35 -35,19.316499710083008 -35,0 C-35,-19.316499710083008 -19.316499710083008,-35 0,-35z"></path></g></g><g opacity="1" transform="matrix(-0.3420201539993286,0.9396926164627075,-0.9396926164627075,-0.3420201539993286,878.187255859375,662.0057983398438)"><g opacity="1" transform="matrix(0.7771459817886353,0.6293203830718994,-0.6293203830718994,0.7771459817886353,0,0)"><path stroke-linecap="butt" stroke-linejoin="miter" fill-opacity="0" stroke-miterlimit="10" stroke="rgb(255,75,61)" stroke-opacity="1" stroke-width="15" d=" M27.957000732421875,-13.979000091552734 C27.957000732421875,1.4609999656677246 15.4399995803833,13.979000091552734 0,13.979000091552734 C-15.4399995803833,13.979000091552734 -27.957000732421875,1.4609999656677246 -27.957000732421875,-13.979000091552734"></path></g></g><g opacity="1" transform="matrix(0.6427876353263855,0.7660444378852844,-0.7660444378852844,0.6427876353263855,815.5465087890625,308.78936767578125)"><g opacity="1" transform="matrix(0.8290375471115112,0.5591928958892822,-0.5591928958892822,0.8290375471115112,0,0)"><path stroke-linecap="butt" stroke-linejoin="miter" fill-opacity="0" stroke-miterlimit="10" stroke="rgb(6,188,92)" stroke-opacity="1" stroke-width="15" d=" M27.957000732421875,-13.979000091552734 C27.957000732421875,1.4609999656677246 15.4399995803833,13.979000091552734 0,13.979000091552734 C-15.4399995803833,13.979000091552734 -27.957000732421875,1.4609999656677246 -27.957000732421875,-13.979000091552734"></path></g></g><g opacity="1" transform="matrix(0,1,-1,0,899.7001953125,540)"><g opacity="1" transform="matrix(1,0,0,1,0,0)"><path fill="rgb(245,180,1)" fill-opacity="1" d=" M31.51799964904785,2.561000108718872 C31.51799964904785,2.561000108718872 13.717000007629395,12.392000198364258 13.717000007629395,12.392000198364258 C13.204000473022461,12.675000190734863 12.781999588012695,13.098999977111816 12.503000259399414,13.614999771118164 C12.503000259399414,13.614999771118164 2.819000005722046,31.496000289916992 2.819000005722046,31.496000289916992 C1.6649999618530273,33.62699890136719 -1.3890000581741333,33.63999938964844 -2.561000108718872,31.51799964904785 C-2.561000108718872,31.51799964904785 -12.392000198364258,13.717000007629395 -12.392000198364258,13.717000007629395 C-12.675000190734863,13.204000473022461 -13.098999977111816,12.781999588012695 -13.614999771118164,12.503000259399414 C-13.614999771118164,12.503000259399414 -31.496000289916992,2.819000005722046 -31.496000289916992,2.819000005722046 C-33.62699890136719,1.6649999618530273 -33.63999938964844,-1.3890000581741333 -31.51799964904785,-2.561000108718872 C-31.51799964904785,-2.561000108718872 -13.717000007629395,-12.392000198364258 -13.717000007629395,-12.392000198364258 C-13.204000473022461,-12.675000190734863 -12.781999588012695,-13.098999977111816 -12.503000259399414,-13.614999771118164 C-12.503000259399414,-13.614999771118164 -2.819000005722046,-31.496000289916992 -2.819000005722046,-31.496000289916992 C-1.6649999618530273,-33.62699890136719 1.3890000581741333,-33.63999938964844 2.561000108718872,-31.51799964904785 C2.561000108718872,-31.51799964904785 12.392000198364258,-13.717000007629395 12.392000198364258,-13.717000007629395 C12.675000190734863,-13.204000473022461 13.098999977111816,-12.781999588012695 13.614999771118164,-12.503000259399414 C13.614999771118164,-12.503000259399414 31.496000289916992,-2.819000005722046 31.496000289916992,-2.819000005722046 C33.62699890136719,-1.6649999618530273 33.63999938964844,1.3890000581741333 31.51799964904785,2.561000108718872z"></path></g></g><g opacity="1" transform="matrix(0,-1,1,0,180.67181396484375,539.8460083007812)"><g opacity="1" transform="matrix(1,0,0,1,0,0)"><path fill="rgb(245,180,1)" fill-opacity="1" d=" M31.51799964904785,2.561000108718872 C31.51799964904785,2.561000108718872 13.717000007629395,12.392000198364258 13.717000007629395,12.392000198364258 C13.204000473022461,12.675000190734863 12.781999588012695,13.098999977111816 12.503000259399414,13.614999771118164 C12.503000259399414,13.614999771118164 2.819000005722046,31.496000289916992 2.819000005722046,31.496000289916992 C1.6649999618530273,33.62699890136719 -1.3890000581741333,33.63999938964844 -2.561000108718872,31.51799964904785 C-2.561000108718872,31.51799964904785 -12.392000198364258,13.717000007629395 -12.392000198364258,13.717000007629395 C-12.675000190734863,13.204000473022461 -13.098999977111816,12.781999588012695 -13.614999771118164,12.503000259399414 C-13.614999771118164,12.503000259399414 -31.496000289916992,2.819000005722046 -31.496000289916992,2.819000005722046 C-33.62699890136719,1.6649999618530273 -33.63999938964844,-1.3890000581741333 -31.51799964904785,-2.561000108718872 C-31.51799964904785,-2.561000108718872 -13.717000007629395,-12.392000198364258 -13.717000007629395,-12.392000198364258 C-13.204000473022461,-12.675000190734863 -12.781999588012695,-13.098999977111816 -12.503000259399414,-13.614999771118164 C-12.503000259399414,-13.614999771118164 -2.819000005722046,-31.496000289916992 -2.819000005722046,-31.496000289916992 C-1.6649999618530273,-33.62699890136719 1.3890000581741333,-33.63999938964844 2.561000108718872,-31.51799964904785 C2.561000108718872,-31.51799964904785 12.392000198364258,-13.717000007629395 12.392000198364258,-13.717000007629395 C12.675000190734863,-13.204000473022461 13.098999977111816,-12.781999588012695 13.614999771118164,-12.503000259399414 C13.614999771118164,-12.503000259399414 31.496000289916992,-2.819000005722046 31.496000289916992,-2.819000005722046 C33.62699890136719,-1.6649999618530273 33.63999938964844,1.3890000581741333 31.51799964904785,2.561000108718872z"></path></g></g><g opacity="1" transform="matrix(0.6691306233406067,0.7431448101997375,-0.7431448101997375,0.6691306233406067,811.5301513671875,767.8405151367188)"><g opacity="1" transform="matrix(0.800000011920929,0,0,0.800000011920929,0,0)"><path fill="rgb(0,255,200)" fill-opacity="1" d=" M35,-35 C35,-35 35,35 35,35 C35,35 -35,35 -35,35 C-35,35 -35,-35 -35,-35 C-35,-35 35,-35 35,-35z"></path></g></g><g opacity="1" transform="matrix(-0.7986354827880859,0.6018150448799133,-0.6018150448799133,-0.7986354827880859,289.360595703125,790.639404296875)"><g opacity="1" transform="matrix(0.800000011920929,0,0,0.800000011920929,0,0)"><path fill="rgb(0,255,200)" fill-opacity="1" d=" M35,-35 C35,-35 35,35 35,35 C35,35 -35,35 -35,35 C-35,35 -35,-35 -35,-35 C-35,-35 35,-35 35,-35z"></path></g></g><g opacity="1" transform="matrix(0,1,-1,0,540,894.4571533203125)"><g opacity="1" transform="matrix(0.80901700258255,0.5877852439880371,-0.5877852439880371,0.80901700258255,0,0)"><path stroke-linecap="butt" stroke-linejoin="miter" fill-opacity="0" stroke-miterlimit="10" stroke="rgb(0,161,255)" stroke-opacity="1" stroke-width="15" d=" M0,-35 C0,-35 0,35 0,35"></path></g></g><g opacity="1" transform="matrix(-0.4226182699203491,-0.9063078165054321,0.9063078165054321,-0.4226182699203491,214.47764587402344,691.2681274414062)"><g opacity="1" transform="matrix(1,0,0,1,0,0)"><path fill="rgb(255,0,93)" fill-opacity="1" d=" M0,-35 C19.316499710083008,-35 35,-19.316499710083008 35,0 C35,19.316499710083008 19.316499710083008,35 0,35 C-19.316499710083008,35 -35,19.316499710083008 -35,0 C-35,-19.316499710083008 -19.316499710083008,-35 0,-35z"></path></g></g><g opacity="1" transform="matrix(-0.9063078165054321,0.4226182699203491,-0.4226182699203491,-0.9063078165054321,692.4921264648438,865.2512817382812)"><g opacity="1" transform="matrix(0.7771459817886353,0.6293203830718994,-0.6293203830718994,0.7771459817886353,0,0)"><path stroke-linecap="butt" stroke-linejoin="miter" fill-opacity="0" stroke-miterlimit="10" stroke="rgb(255,75,61)" stroke-opacity="1" stroke-width="15" d=" M27.957000732421875,-13.979000091552734 C27.957000732421875,1.4609999656677246 15.4399995803833,13.979000091552734 0,13.979000091552734 C-15.4399995803833,13.979000091552734 -27.957000732421875,1.4609999656677246 -27.957000732421875,-13.979000091552734"></path></g></g><g opacity="1" transform="matrix(0.4226182699203491,-0.9063078165054321,0.9063078165054321,0.4226182699203491,214.47763061523438,387.2367858886719)"><g opacity="1" transform="matrix(0.8290375471115112,0.5591928958892822,-0.5591928958892822,0.8290375471115112,0,0)"><path stroke-linecap="butt" stroke-linejoin="miter" fill-opacity="0" stroke-miterlimit="10" stroke="rgb(6,188,92)" stroke-opacity="1" stroke-width="15" d=" M27.957000732421875,-13.979000091552734 C27.957000732421875,1.4609999656677246 15.4399995803833,13.979000091552734 0,13.979000091552734 C-15.4399995803833,13.979000091552734 -27.957000732421875,1.4609999656677246 -27.957000732421875,-13.979000091552734"></path></g></g><g opacity="1" transform="matrix(0.9063078165054321,-0.4226182699203491,0.4226182699203491,0.9063078165054321,388.4607849121094,213.25271606445312)"><g opacity="1" transform="matrix(1,0,0,1,0,0)"><path fill="rgb(245,180,1)" fill-opacity="1" d=" M31.51799964904785,2.561000108718872 C31.51799964904785,2.561000108718872 13.717000007629395,12.392000198364258 13.717000007629395,12.392000198364258 C13.204000473022461,12.675000190734863 12.781999588012695,13.098999977111816 12.503000259399414,13.614999771118164 C12.503000259399414,13.614999771118164 2.819000005722046,31.496000289916992 2.819000005722046,31.496000289916992 C1.6649999618530273,33.62699890136719 -1.3890000581741333,33.63999938964844 -2.561000108718872,31.51799964904785 C-2.561000108718872,31.51799964904785 -12.392000198364258,13.717000007629395 -12.392000198364258,13.717000007629395 C-12.675000190734863,13.204000473022461 -13.098999977111816,12.781999588012695 -13.614999771118164,12.503000259399414 C-13.614999771118164,12.503000259399414 -31.496000289916992,2.819000005722046 -31.496000289916992,2.819000005722046 C-33.62699890136719,1.6649999618530273 -33.63999938964844,-1.3890000581741333 -31.51799964904785,-2.561000108718872 C-31.51799964904785,-2.561000108718872 -13.717000007629395,-12.392000198364258 -13.717000007629395,-12.392000198364258 C-13.204000473022461,-12.675000190734863 -12.781999588012695,-13.098999977111816 -12.503000259399414,-13.614999771118164 C-12.503000259399414,-13.614999771118164 -2.819000005722046,-31.496000289916992 -2.819000005722046,-31.496000289916992 C-1.6649999618530273,-33.62699890136719 1.3890000581741333,-33.63999938964844 2.561000108718872,-31.51799964904785 C2.561000108718872,-31.51799964904785 12.392000198364258,-13.717000007629395 12.392000198364258,-13.717000007629395 C12.675000190734863,-13.204000473022461 13.098999977111816,-12.781999588012695 13.614999771118164,-12.503000259399414 C13.614999771118164,-12.503000259399414 31.496000289916992,-2.819000005722046 31.496000289916992,-2.819000005722046 C33.62699890136719,-1.6649999618530273 33.63999938964844,1.3890000581741333 31.51799964904785,2.561000108718872z"></path></g></g><g opacity="1" transform="matrix(-0.9396926164627075,-0.3420201539993286,0.3420201539993286,-0.9396926164627075,417.4512023925781,877.2601318359375)"><g opacity="1" transform="matrix(1,0,0,1,0,0)"><path fill="rgb(245,180,1)" fill-opacity="1" d=" M31.51799964904785,2.561000108718872 C31.51799964904785,2.561000108718872 13.717000007629395,12.392000198364258 13.717000007629395,12.392000198364258 C13.204000473022461,12.675000190734863 12.781999588012695,13.098999977111816 12.503000259399414,13.614999771118164 C12.503000259399414,13.614999771118164 2.819000005722046,31.496000289916992 2.819000005722046,31.496000289916992 C1.6649999618530273,33.62699890136719 -1.3890000581741333,33.63999938964844 -2.561000108718872,31.51799964904785 C-2.561000108718872,31.51799964904785 -12.392000198364258,13.717000007629395 -12.392000198364258,13.717000007629395 C-12.675000190734863,13.204000473022461 -13.098999977111816,12.781999588012695 -13.614999771118164,12.503000259399414 C-13.614999771118164,12.503000259399414 -31.496000289916992,2.819000005722046 -31.496000289916992,2.819000005722046 C-33.62699890136719,1.6649999618530273 -33.63999938964844,-1.3890000581741333 -31.51799964904785,-2.561000108718872 C-31.51799964904785,-2.561000108718872 -13.717000007629395,-12.392000198364258 -13.717000007629395,-12.392000198364258 C-13.204000473022461,-12.675000190734863 -12.781999588012695,-13.098999977111816 -12.503000259399414,-13.614999771118164 C-12.503000259399414,-13.614999771118164 -2.819000005722046,-31.496000289916992 -2.819000005722046,-31.496000289916992 C-1.6649999618530273,-33.62699890136719 1.3890000581741333,-33.63999938964844 2.561000108718872,-31.51799964904785 C2.561000108718872,-31.51799964904785 12.392000198364258,-13.717000007629395 12.392000198364258,-13.717000007629395 C12.675000190734863,-13.204000473022461 13.098999977111816,-12.781999588012695 13.614999771118164,-12.503000259399414 C13.614999771118164,-12.503000259399414 31.496000289916992,-2.819000005722046 31.496000289916992,-2.819000005722046 C33.62699890136719,-1.6649999618530273 33.63999938964844,1.3890000581741333 31.51799964904785,2.561000108718872z"></path></g></g><g opacity="1" transform="matrix(0.5446390509605408,-0.838670551776886,0.838670551776886,0.5446390509605408,690.3074340820312,218.09141540527344)"><g opacity="1" transform="matrix(0.800000011920929,0,0,0.800000011920929,0,0)"><path fill="rgb(0,255,200)" fill-opacity="1" d=" M35,-35 C35,-35 35,35 35,35 C35,35 -35,35 -35,35 C-35,35 -35,-35 -35,-35 C-35,-35 35,-35 35,-35z"></path></g></g><g opacity="1" transform="matrix(-0.6018150448799133,-0.7986354827880859,0.7986354827880859,-0.6018150448799133,288.8354797363281,288.8354797363281)"><g opacity="1" transform="matrix(0.800000011920929,0,0,0.800000011920929,0,0)"><path fill="rgb(0,255,200)" fill-opacity="1" d=" M35,-35 C35,-35 35,35 35,35 C35,35 -35,35 -35,35 C-35,35 -35,-35 -35,-35 C-35,-35 35,-35 35,-35z"></path></g></g><g opacity="1" transform="matrix(0.9335803985595703,-0.3583679497241974,0.3583679497241974,0.9335803985595703,871.4047241210938,412.2596435546875)"><g opacity="1" transform="matrix(0.80901700258255,0.5877852439880371,-0.5877852439880371,0.80901700258255,0,0)"><path stroke-linecap="butt" stroke-linejoin="miter" fill-opacity="0" stroke-miterlimit="10" stroke="rgb(0,161,255)" stroke-opacity="1" stroke-width="15" d=" M0,-35 C0,-35 0,35 0,35"></path></g></g></g><g transform="matrix(1,0,0,1,447,483)" opacity="1" style="display: block;"><g opacity="1" transform="matrix(1,0,0,1,93,57)"><path fill="rgb(52,178,51)" fill-opacity="1" d=" M0,-175 C96.5824966430664,-175 175,-96.5824966430664 175,0 C175,96.5824966430664 96.5824966430664,175 0,175 C-96.5824966430664,175 -175,96.5824966430664 -175,0 C-175,-96.5824966430664 -96.5824966430664,-175 0,-175z"></path><path stroke-linecap="butt" stroke-linejoin="miter" fill-opacity="0" stroke-miterlimit="4" stroke="rgb(0,0,0)" stroke-opacity="1" stroke-width="0" d=" M0,-175 C96.5824966430664,-175 175,-96.5824966430664 175,0 C175,96.5824966430664 96.5824966430664,175 0,175 C-96.5824966430664,175 -175,96.5824966430664 -175,0 C-175,-96.5824966430664 -96.5824966430664,-175 0,-175z"></path></g></g><g transform="matrix(0.7071067690849304,-0.7071067690849304,0.7071067690849304,0.7071067690849304,528.6810913085938,541.4610595703125)" opacity="1" style="display: block;"><g opacity="1" transform="matrix(1,0,0,1,0,0)"><path stroke-linecap="round" stroke-linejoin="round" fill-opacity="0" stroke="rgb(255,255,255)" stroke-opacity="1" stroke-width="28" d=" M100.5,20.5 C100.5,20.5 -40,20.5 -40,20.5 C-40,20.5 -40,-40.5 -40,-40.5"></path></g></g></g></svg>